<svg xmlns="http://www.w3.org/2000/svg" width="24" height="24">
    <path fill="#000" fill-rule="nonzero"
        d="M4 21c-.55 0-1.02-.196-1.413-.587A1.926 1.926 0 0 1 2 19v-4c0-.55.196-1.02.587-1.412A1.926 1.926 0 0 1 4 13h4c.55 0 1.02.196 1.412.588.392.391.588.862.588 1.412v4c0 .55-.196 1.02-.588 1.413A1.926 1.926 0 0 1 8 21H4Zm10-3a.968.968 0 0 1-.713-.288A.968.968 0 0 1 13 17c0-.283.096-.52.287-.712A.968.968 0 0 1 14 16h7c.283 0 .52.096.712.288.192.191.288.429.288.712s-.096.52-.288.712A.968.968 0 0 1 21 18h-7ZM4 11c-.55 0-1.02-.196-1.413-.588A1.926 1.926 0 0 1 2 9V5c0-.55.196-1.02.587-1.413A1.926 1.926 0 0 1 4 3h4c.55 0 1.02.196 1.412.587C9.804 3.98 10 4.45 10 5v4c0 .55-.196 1.02-.588 1.412A1.926 1.926 0 0 1 8 11H4Zm10-3a.968.968 0 0 1-.713-.287A.968.968 0 0 1 13 7c0-.283.096-.52.287-.713A.968.968 0 0 1 14 6h7c.283 0 .52.096.712.287.192.192.288.43.288.713s-.096.52-.288.713A.968.968 0 0 1 21 8h-7Z" />
</svg>